<svg width="64" height="64" viewBox="0 0 64 64" fill="none" xmlns="http://www.w3.org/2000/svg">
<path d="M10.811 16.9793L19.2867 16.2803L27.7624 26.7662V36.5531L10.811 26.7662V16.9793Z" fill="#2563EB"/>
<path d="M27.7622 36.5531L53.1894 21.8729V12.0859L27.7622 26.7662" fill="#1D4ED8"/>
<path d="M19.2866 16.2804L44.7138 1.6001L54.4002 13.5832L28.9732 28.2634L19.2866 16.2804Z" fill="#E4E4E7"/>
<path d="M19.2865 16.2804L9.6001 17.0837L35.0272 2.40335L44.7137 1.6001L19.2865 16.2804Z" fill="#E4E4E7"/>
<path d="M12.022 27.4652V20.4746L24.13 27.4652V34.4559L12.022 27.4652Z" fill="#E4E4E7"/>
<path d="M25.3408 35.1551V32.3589L26.5516 33.0579L26.5593 35.8528L25.3408 35.1551Z" fill="#1E3A8A"/>
<path d="M24.1296 33.1069V33.0014L12.0443 26.024L12.0215 26.0107V26.1163L24.1067 33.0938L24.1296 33.1069Z" fill="#E4E4E7"/>
<path d="M12.0215 24.6138V24.7192L24.1067 31.6966L24.1296 31.7098V31.6044L12.0443 24.6269L12.0215 24.6138Z" fill="#E4E4E7"/>
<path d="M24.1296 28.916V28.8105L12.0443 21.833L12.0215 21.8198V21.9253L24.1067 28.9028L24.1296 28.916Z" fill="#E4E4E7"/>
<path d="M12.0215 23.2168V23.3222L24.1067 30.2997L24.1296 30.3128V30.2073L12.0443 23.2299L12.0215 23.2168Z" fill="#E4E4E7"/>
<path d="M39.8702 29.5624V22.5718L28.9717 28.864V35.8546L39.8702 29.5624Z" fill="#E4E4E7"/>
<path d="M39.8702 26.8165V26.7109L28.9717 33.0031V33.1087L39.8702 26.8165Z" fill="#2563EB"/>
<path d="M28.9717 31.6062V31.7117L39.8702 25.4195V25.314L28.9717 31.6062Z" fill="#2563EB"/>
<path d="M28.9717 30.2094V30.3148L39.8702 24.0226V23.917L28.9717 30.2094Z" fill="#2563EB"/>
<path d="M39.8702 28.2134V28.1079L28.9717 34.4001V34.5056L39.8702 28.2134Z" fill="#2563EB"/>
<path d="M51.9786 22.5693V15.5786L41.0801 21.8708V28.8615L51.9786 22.5693Z" fill="#E4E4E7"/>
<path d="M41.0801 24.613V24.7185L51.9786 18.4263V18.3208L41.0801 24.613Z" fill="#2563EB"/>
<path d="M51.9786 21.2208V21.1152L41.0801 27.4075V27.5131L51.9786 21.2208Z" fill="#2563EB"/>
<path d="M51.9786 19.8233V19.7178L41.0801 26.01V26.1156L51.9786 19.8233Z" fill="#2563EB"/>
<path d="M41.0801 23.216V23.3216L51.9786 17.0294V16.9238L41.0801 23.216Z" fill="#2563EB"/>
<path d="M26.5987 12.0478L26.5786 12.0229L16.9879 12.8184L16.8071 12.9227L16.8098 12.9547L26.5247 12.1489L36.1851 24.0997L36.2913 24.0384L26.5987 12.0478Z" fill="#2563EB"/>
<path d="M29.02 10.6494L29 10.6245L19.4092 11.4199L19.2285 11.5242L19.2311 11.5562L28.9461 10.7505L38.6064 22.7013L38.7126 22.6399L29.02 10.6494Z" fill="#2563EB"/>
<path d="M25.3877 12.7466L25.3676 12.7217L15.7769 13.5171L15.5962 13.6214L15.5988 13.6535L25.3137 12.8477L34.974 24.7984L35.0802 24.7372L25.3877 12.7466Z" fill="#2563EB"/>
<path d="M30.2311 9.95063L30.211 9.92578L20.6204 10.7211L20.4395 10.8255L20.4422 10.8573L30.157 10.0517L39.8175 22.0024L39.9236 21.9411L30.2311 9.95063Z" fill="#2563EB"/>
<path d="M22.9663 14.1451L22.9462 14.1201L13.3556 14.9154L13.1748 15.0198L13.1774 15.0517L22.8924 14.2462L32.5527 26.1968L32.6589 26.1355L22.9663 14.1451Z" fill="#2563EB"/>
<path d="M20.5244 15.5181L10.9338 16.3134L10.7529 16.4178L10.7556 16.4498L20.4705 15.6442L30.1309 27.5947L30.237 27.5335L20.5444 15.543L20.5244 15.5181Z" fill="#2563EB"/>
<path d="M21.7555 14.8443L21.7354 14.8193L12.1447 15.6146L11.9639 15.7191L11.9667 15.7509L21.6814 14.9454L31.3419 26.896L31.448 26.8347L21.7555 14.8443Z" fill="#2563EB"/>
<path d="M24.1769 13.4457L24.1567 13.4209L14.566 14.2163L14.3853 14.3207L14.388 14.3526L24.1028 13.5468L33.7633 25.4976L33.8694 25.4363L24.1769 13.4457Z" fill="#2563EB"/>
<path d="M31.4419 9.2515L31.4218 9.22656L21.8313 10.0219L21.6504 10.1263L21.653 10.1582L31.368 9.35256L41.0282 21.3033L41.1344 21.242L31.4419 9.2515Z" fill="#2563EB"/>
<path d="M27.8096 11.3486L27.7895 11.3237L18.1987 12.1191L18.0181 12.2235L18.0207 12.2554L27.7355 11.4497L37.3959 23.4005L37.502 23.3392L27.8096 11.3486Z" fill="#2563EB"/>
<path d="M41.1285 3.65922L41.1084 3.63428L31.5177 4.42965L31.3369 4.53395L31.3396 4.56589L41.0545 3.76037L50.7149 15.711L50.8211 15.6497L41.1285 3.65922Z" fill="#2563EB"/>
<path d="M39.9175 4.35795L39.8974 4.33301L30.3068 5.12838L30.126 5.23277L30.1286 5.26462L39.8436 4.4591L49.5038 16.4098L49.61 16.3485L39.9175 4.35795Z" fill="#2563EB"/>
<path d="M38.7066 5.05708L38.6866 5.03223L29.0959 5.8276L28.915 5.9319L28.9178 5.96384L38.6326 5.15823L48.293 17.1089L48.3992 17.0476L38.7066 5.05708Z" fill="#2563EB"/>
<path d="M43.5498 2.26086L43.5298 2.23584L33.9391 3.03139L33.7583 3.13569L33.7609 3.16763L43.4759 2.36193L53.1362 14.3127L53.2424 14.2513L43.5498 2.26086Z" fill="#2563EB"/>
<path d="M42.3394 2.96L42.3192 2.93506L32.7285 3.73052L32.5479 3.83482L32.5505 3.86676L42.2653 3.06106L51.9257 15.0118L52.0318 14.9505L42.3394 2.96Z" fill="#2563EB"/>
<path d="M37.4956 5.75638L37.4755 5.73145L27.8849 6.52682L27.7041 6.63121L27.7067 6.66306L37.4217 5.85745L47.082 17.8081L47.1882 17.7469L37.4956 5.75638Z" fill="#2563EB"/>
<path d="M32.6524 8.55219L32.6323 8.52734L23.0417 9.32272L22.8608 9.42711L22.8636 9.45887L32.5784 8.65334L42.2389 20.6041L42.345 20.5428L32.6524 8.55219Z" fill="#2563EB"/>
<path d="M35.0742 7.15424L35.0542 7.12939L25.4636 7.92468L25.2827 8.02907L25.2853 8.06092L35.0003 7.25539L44.6607 19.2061L44.7669 19.1448L35.0742 7.15424Z" fill="#2563EB"/>
<path d="M33.8633 7.85346L33.8432 7.82861L24.2526 8.6239L24.0718 8.72838L24.0744 8.76014L33.7892 7.95461L43.4496 19.9054L43.5558 19.844L33.8633 7.85346Z" fill="#2563EB"/>
<path d="M36.2853 6.45503L36.2651 6.43018L26.6744 7.22546L26.4937 7.32985L26.4964 7.3617L36.2111 6.55609L45.8716 18.5068L45.9778 18.4455L36.2853 6.45503Z" fill="#2563EB"/>
<path d="M45.6172 7.34229L43.7725 8.37802L45.5289 10.5508L47.3464 9.48175L45.6172 7.34229Z" fill="#2563EB"/>
<path d="M42.8779 8.92383L41.0332 9.95948L42.7896 12.1324L44.6071 11.0632L42.8779 8.92383Z" fill="#2563EB"/>
<path d="M8.04415 58.7119C7.10015 58.7119 6.19615 58.5639 5.33215 58.2679C4.46815 57.9639 3.71215 57.5319 3.06415 56.9719C2.41615 56.4039 1.94815 55.7279 1.66015 54.9439L5.04415 53.6959C5.12415 53.9279 5.30015 54.1519 5.57215 54.3679C5.85215 54.5839 6.20415 54.7639 6.62815 54.9079C7.05215 55.0439 7.52415 55.1119 8.04415 55.1119C8.52415 55.1119 8.97615 55.0439 9.40016 54.9079C9.82415 54.7639 10.1682 54.5679 10.4322 54.3199C10.6962 54.0719 10.8282 53.7839 10.8282 53.4559C10.8282 53.1199 10.6882 52.8439 10.4082 52.6279C10.1362 52.4039 9.78415 52.2279 9.35215 52.0999C8.92815 51.9639 8.49215 51.8639 8.04415 51.7999C6.82815 51.6239 5.73615 51.3359 4.76815 50.9359C3.80815 50.5279 3.04815 49.9679 2.48815 49.2559C1.93615 48.5439 1.66015 47.6399 1.66015 46.5439C1.66015 45.4959 1.95615 44.5799 2.54815 43.7959C3.14015 43.0039 3.92015 42.3879 4.88815 41.9479C5.86415 41.5079 6.91615 41.2879 8.04415 41.2879C8.98815 41.2879 9.89215 41.4399 10.7562 41.7439C11.6282 42.0399 12.3882 42.4719 13.0362 43.0399C13.6842 43.6079 14.1482 44.2879 14.4282 45.0799L11.0442 46.3039C10.9642 46.0719 10.7842 45.8519 10.5042 45.6439C10.2322 45.4279 9.88415 45.2519 9.46016 45.1159C9.03615 44.9799 8.56415 44.9119 8.04415 44.9119C7.58015 44.9039 7.13615 44.9719 6.71215 45.1159C6.28815 45.2599 5.94015 45.4559 5.66815 45.7039C5.39615 45.9519 5.26015 46.2319 5.26015 46.5439C5.26015 46.9759 5.38815 47.2999 5.64415 47.5159C5.90015 47.7239 6.23615 47.8719 6.65215 47.9599C7.07615 48.0479 7.54015 48.1279 8.04415 48.1999C9.19615 48.3679 10.2562 48.6679 11.2242 49.0999C12.1922 49.5319 12.9682 50.1079 13.5522 50.8279C14.1362 51.5479 14.4282 52.4239 14.4282 53.4559C14.4282 54.5039 14.1322 55.4239 13.5402 56.2159C12.9562 56.9999 12.1802 57.6119 11.2122 58.0519C10.2442 58.4919 9.18815 58.7119 8.04415 58.7119ZM15.8642 58.3999V41.5999H25.8482V45.1999H19.4642V47.5999H24.6962V51.1999H19.4642V58.3999H15.8642ZM34.1121 58.7119C32.9761 58.7119 31.9081 58.4879 30.9081 58.0399C29.9081 57.5839 29.0281 56.9559 28.2681 56.1559C27.5161 55.3559 26.9241 54.4319 26.4921 53.3839C26.0681 52.3279 25.8561 51.1999 25.8561 49.9999C25.8561 48.7919 26.0681 47.6639 26.4921 46.6159C26.9241 45.5599 27.5161 44.6359 28.2681 43.8439C29.0281 43.0439 29.9081 42.4199 30.9081 41.9719C31.9081 41.5159 32.9761 41.2879 34.1121 41.2879C35.4721 41.2879 36.7241 41.6039 37.8681 42.2359C39.0121 42.8599 39.9601 43.6959 40.7121 44.7439L37.4961 46.4719C37.0801 45.9919 36.5801 45.6079 35.9961 45.3199C35.4121 45.0319 34.7841 44.8879 34.1121 44.8879C33.4721 44.8879 32.8681 45.0199 32.3001 45.2839C31.7401 45.5479 31.2441 45.9159 30.8121 46.3879C30.3881 46.8519 30.0561 47.3919 29.8161 48.0079C29.5761 48.6239 29.4561 49.2879 29.4561 49.9999C29.4561 50.7039 29.5761 51.3639 29.8161 51.9799C30.0561 52.5959 30.3881 53.1399 30.8121 53.6119C31.2441 54.0759 31.7401 54.4439 32.3001 54.7159C32.8681 54.9799 33.4721 55.1119 34.1121 55.1119C34.7841 55.1119 35.4121 54.9679 35.9961 54.6799C36.5801 54.3839 37.0801 53.9919 37.4961 53.5039L40.7121 55.2559C39.9601 56.2959 39.0121 57.1319 37.8681 57.7639C36.7241 58.3959 35.4721 58.7119 34.1121 58.7119ZM41.8939 58.3999L45.1579 41.5999H48.2299L51.9979 51.5119L55.7659 41.5999H58.8379L62.1019 58.3999H58.4299L56.6779 49.3279L53.2459 58.3999H50.7499L47.3179 49.3279L45.5659 58.3999H41.8939Z" fill="#2563EB"/>
</svg>
