<svg width="200" height="57" viewBox="0 0 200 57" fill="none" xmlns="http://www.w3.org/2000/svg">
<path d="M1.72998 25.1705L13.8381 24.1719L25.9462 39.1518V53.133L1.72998 39.1518V25.1705Z" fill="#2563EB"/>
<path d="M25.9458 53.1333L62.2703 32.1616V18.1802L25.9458 39.1521" fill="#1D4ED8"/>
<path d="M13.8379 24.1721L50.1624 3.2002L64.0001 20.3189L27.6759 41.2907L13.8379 24.1721Z" fill="#E4E4E7"/>
<path d="M13.8378 24.1721L0 25.3197L36.3244 4.34769L50.1623 3.2002L13.8378 24.1721Z" fill="#E4E4E7"/>
<path d="M3.45996 40.1502V30.1636L20.7572 40.1502V50.1368L3.45996 40.1502Z" fill="#E4E4E7"/>
<path d="M22.4868 51.1357V47.1411L24.2166 48.1397L24.2276 52.1325L22.4868 51.1357Z" fill="#1E3A8A"/>
<path d="M20.7562 48.2101V48.0594L3.49161 38.0916L3.45898 38.0728V38.2235L20.7236 48.1914L20.7562 48.2101Z" fill="#E4E4E7"/>
<path d="M3.45898 36.0771V36.2278L20.7236 46.1955L20.7562 46.2144V46.0638L3.49161 36.0959L3.45898 36.0771Z" fill="#E4E4E7"/>
<path d="M20.7562 42.2228V42.0721L3.49161 32.1043L3.45898 32.0854V32.2362L20.7236 42.2039L20.7562 42.2228Z" fill="#E4E4E7"/>
<path d="M3.45898 34.0815V34.2322L20.7236 44.1999L20.7562 44.2187V44.068L3.49161 34.1003L3.45898 34.0815Z" fill="#E4E4E7"/>
<path d="M43.2426 43.1463V33.1597L27.6733 42.1485V52.1352L43.2426 43.1463Z" fill="#E4E4E7"/>
<path d="M43.2431 39.223V39.0723L27.6738 48.061V48.2119L43.2431 39.223Z" fill="#2563EB"/>
<path d="M27.6738 46.0655V46.2163L43.2431 37.2274V37.0767L27.6738 46.0655Z" fill="#2563EB"/>
<path d="M27.6738 44.0707V44.2213L43.2431 35.2324V35.0815L27.6738 44.0707Z" fill="#2563EB"/>
<path d="M43.2431 41.2191V41.0684L27.6738 50.0572V50.208L43.2431 41.2191Z" fill="#2563EB"/>
<path d="M60.5404 33.1565V23.1699L44.9712 32.1588V42.1454L60.5404 33.1565Z" fill="#E4E4E7"/>
<path d="M44.9712 36.0758V36.2265L60.5404 27.2377V27.0869L44.9712 36.0758Z" fill="#2563EB"/>
<path d="M60.5404 31.2294V31.0786L44.9712 40.0676V40.2184L60.5404 31.2294Z" fill="#2563EB"/>
<path d="M60.5404 29.2333V29.0825L44.9712 38.0714V38.2223L60.5404 29.2333Z" fill="#2563EB"/>
<path d="M44.9712 34.0807V34.2314L60.5404 25.2427V25.0918L44.9712 34.0807Z" fill="#2563EB"/>
<path d="M24.2834 18.1253L24.2547 18.0898L10.5537 19.2262L10.2954 19.3752L10.2992 19.421L24.1777 18.2698L37.9782 35.3423L38.1299 35.2548L24.2834 18.1253Z" fill="#2563EB"/>
<path d="M27.7423 16.1278L27.7136 16.0923L14.0125 17.2285L13.7544 17.3775L13.7581 17.4233L27.6366 16.2723L41.437 33.3448L41.5888 33.2572L27.7423 16.1278Z" fill="#2563EB"/>
<path d="M22.5533 19.124L22.5246 19.0884L8.82355 20.2248L8.56543 20.3738L8.56918 20.4195L22.4476 19.2684L36.2481 36.3409L36.3997 36.2534L22.5533 19.124Z" fill="#2563EB"/>
<path d="M29.4724 15.1297L29.4438 15.0942L15.7429 16.2304L15.4844 16.3795L15.4882 16.425L29.3666 15.2741L43.1673 32.3466L43.3189 32.259L29.4724 15.1297Z" fill="#2563EB"/>
<path d="M19.0943 21.1216L19.0656 21.0859L5.3647 22.2221L5.10645 22.3712L5.1102 22.4168L18.9887 21.2661L32.7892 38.3383L32.9408 38.2508L19.0943 21.1216Z" fill="#2563EB"/>
<path d="M15.6057 23.083L1.90486 24.2193L1.64648 24.3684L1.65023 24.414L15.5287 23.2631L29.3292 40.3354L29.4809 40.2479L15.6344 23.1186L15.6057 23.083Z" fill="#2563EB"/>
<path d="M17.3645 22.1206L17.3358 22.085L3.63484 23.2211L3.37646 23.3703L3.38047 23.4158L17.2587 22.2651L31.0593 39.3373L31.211 39.2498L17.3645 22.1206Z" fill="#2563EB"/>
<path d="M20.8235 20.1224L20.7947 20.0869L7.0937 21.2232L6.83545 21.3723L6.83932 21.4179L20.7177 20.2668L34.5183 37.3393L34.67 37.2518L20.8235 20.1224Z" fill="#2563EB"/>
<path d="M31.2022 14.1308L31.1735 14.0952L17.4727 15.2315L17.2144 15.3806L17.2181 15.4261L31.0966 14.2752L44.897 31.3477L45.0486 31.2601L31.2022 14.1308Z" fill="#2563EB"/>
<path d="M26.0133 17.1268L25.9845 17.0913L12.2834 18.2276L12.0254 18.3767L12.0291 18.4223L25.9074 17.2713L39.708 34.3438L39.8596 34.2563L26.0133 17.1268Z" fill="#2563EB"/>
<path d="M45.0402 6.14158L45.0115 6.10596L31.3105 7.24221L31.0522 7.39121L31.0561 7.43683L44.9345 6.28608L58.7351 23.3585L58.8867 23.2708L45.0402 6.14158Z" fill="#2563EB"/>
<path d="M43.3101 7.14012L43.2814 7.10449L29.5805 8.24074L29.3223 8.38987L29.326 8.43537L43.2045 7.28462L57.0049 24.357L57.1565 24.2695L43.3101 7.14012Z" fill="#2563EB"/>
<path d="M41.5803 8.13853L41.5517 8.10303L27.8507 9.23928L27.5923 9.38828L27.5962 9.4339L41.4745 8.28303L55.2752 25.3554L55.4268 25.2679L41.5803 8.13853Z" fill="#2563EB"/>
<path d="M48.4991 4.14415L48.4705 4.1084L34.7695 5.2449L34.5112 5.3939L34.515 5.43952L48.3935 4.28852L62.194 21.361L62.3457 21.2734L48.4991 4.14415Z" fill="#2563EB"/>
<path d="M46.7701 5.14305L46.7414 5.10742L33.0402 6.2438L32.7822 6.3928L32.786 6.43842L46.6642 5.28742L60.4649 22.3599L60.6165 22.2723L46.7701 5.14305Z" fill="#2563EB"/>
<path d="M39.8507 9.13719L39.8219 9.10156L26.121 10.2378L25.8628 10.3869L25.8665 10.4324L39.745 9.28156L53.5455 26.3539L53.6973 26.2664L39.8507 9.13719Z" fill="#2563EB"/>
<path d="M32.9314 13.1317L32.9026 13.0962L19.2017 14.2324L18.9434 14.3816L18.9472 14.4269L32.8256 13.2762L46.6262 30.3487L46.7779 30.2611L32.9314 13.1317Z" fill="#2563EB"/>
<path d="M36.3912 11.1346L36.3626 11.0991L22.6617 12.2352L22.4033 12.3844L22.4071 12.4299L36.2856 11.2791L50.0862 28.3515L50.2378 28.264L36.3912 11.1346Z" fill="#2563EB"/>
<path d="M34.6617 12.1336L34.633 12.0981L20.9322 13.2343L20.6738 13.3835L20.6776 13.4289L34.5558 12.2781L48.3565 29.3506L48.5081 29.263L34.6617 12.1336Z" fill="#2563EB"/>
<path d="M38.1213 10.1356L38.0926 10.1001L24.3916 11.2362L24.1333 11.3853L24.1372 11.4308L38.0154 10.28L51.8161 27.3523L51.9678 27.2648L38.1213 10.1356Z" fill="#2563EB"/>
<path d="M51.4532 11.4033L48.8179 12.8829L51.3271 15.9869L53.9235 14.4597L51.4532 11.4033Z" fill="#2563EB"/>
<path d="M47.5395 13.6626L44.9043 15.1421L47.4134 18.2462L50.0099 16.7188L47.5395 13.6626Z" fill="#2563EB"/>
<path d="M88.0883 45.7905C86.2003 45.7905 84.3923 45.4945 82.6643 44.9025C80.9363 44.2945 79.4243 43.4305 78.1283 42.3105C76.8323 41.1745 75.8963 39.8225 75.3203 38.2545L82.0883 35.7585C82.2483 36.2225 82.6003 36.6705 83.1443 37.1025C83.7043 37.5345 84.4083 37.8945 85.2563 38.1825C86.1043 38.4545 87.0483 38.5905 88.0883 38.5905C89.0483 38.5905 89.9523 38.4545 90.8003 38.1825C91.6483 37.8945 92.3363 37.5025 92.8643 37.0065C93.3923 36.5105 93.6563 35.9345 93.6563 35.2785C93.6563 34.6065 93.3763 34.0545 92.8163 33.6225C92.2723 33.1745 91.5683 32.8225 90.7043 32.5665C89.8563 32.2945 88.9843 32.0945 88.0883 31.9665C85.6563 31.6145 83.4723 31.0385 81.5363 30.2385C79.6163 29.4225 78.0963 28.3025 76.9763 26.8785C75.8723 25.4545 75.3203 23.6465 75.3203 21.4545C75.3203 19.3585 75.9123 17.5265 77.0963 15.9585C78.2803 14.3745 79.8403 13.1425 81.7763 12.2625C83.7283 11.3825 85.8323 10.9425 88.0883 10.9425C89.9763 10.9425 91.7843 11.2465 93.5123 11.8545C95.2563 12.4465 96.7763 13.3105 98.0723 14.4465C99.3683 15.5825 100.296 16.9425 100.856 18.5265L94.0883 20.9745C93.9283 20.5105 93.5683 20.0705 93.0083 19.6545C92.4643 19.2225 91.7683 18.8705 90.9203 18.5985C90.0723 18.3265 89.1283 18.1905 88.0883 18.1905C87.1603 18.1745 86.2723 18.3105 85.4243 18.5985C84.5763 18.8865 83.8803 19.2785 83.3363 19.7745C82.7923 20.2705 82.5203 20.8305 82.5203 21.4545C82.5203 22.3185 82.7763 22.9665 83.2883 23.3985C83.8003 23.8145 84.4723 24.1105 85.3043 24.2865C86.1523 24.4625 87.0803 24.6225 88.0883 24.7665C90.3923 25.1025 92.5123 25.7025 94.4483 26.5665C96.3843 27.4305 97.9363 28.5825 99.1043 30.0225C100.272 31.4625 100.856 33.2145 100.856 35.2785C100.856 37.3745 100.264 39.2145 99.0803 40.7985C97.9123 42.3665 96.3603 43.5905 94.4243 44.4705C92.4883 45.3505 90.3763 45.7905 88.0883 45.7905ZM103.728 45.1665V11.5665H123.696V18.7665H110.928V23.5665H121.392V30.7665H110.928V45.1665H103.728ZM140.224 45.7905C137.952 45.7905 135.816 45.3425 133.816 44.4465C131.816 43.5345 130.056 42.2785 128.536 40.6785C127.032 39.0785 125.848 37.2305 124.984 35.1345C124.136 33.0225 123.712 30.7665 123.712 28.3665C123.712 25.9505 124.136 23.6945 124.984 21.5985C125.848 19.4865 127.032 17.6385 128.536 16.0545C130.056 14.4545 131.816 13.2065 133.816 12.3105C135.816 11.3985 137.952 10.9425 140.224 10.9425C142.944 10.9425 145.448 11.5745 147.736 12.8385C150.024 14.0865 151.92 15.7585 153.424 17.8545L146.992 21.3105C146.16 20.3505 145.16 19.5825 143.992 19.0065C142.824 18.4305 141.568 18.1425 140.224 18.1425C138.944 18.1425 137.736 18.4065 136.6 18.9345C135.48 19.4625 134.488 20.1985 133.624 21.1425C132.776 22.0705 132.112 23.1505 131.632 24.3825C131.152 25.6145 130.912 26.9425 130.912 28.3665C130.912 29.7745 131.152 31.0945 131.632 32.3265C132.112 33.5585 132.776 34.6465 133.624 35.5905C134.488 36.5185 135.48 37.2545 136.6 37.7985C137.736 38.3265 138.944 38.5905 140.224 38.5905C141.568 38.5905 142.824 38.3025 143.992 37.7265C145.16 37.1345 146.16 36.3505 146.992 35.3745L153.424 38.8785C151.92 40.9585 150.024 42.6305 147.736 43.8945C145.448 45.1585 142.944 45.7905 140.224 45.7905ZM155.788 45.1665L162.316 11.5665H168.46L175.996 31.3905L183.532 11.5665H189.676L196.204 45.1665H188.86L185.356 27.0225L178.492 45.1665H173.5L166.636 27.0225L163.132 45.1665H155.788Z" fill="#2563EB"/>
</svg>
