<svg width="256" height="256" viewBox="0 0 256 256" fill="none" xmlns="http://www.w3.org/2000/svg">
<path d="M43.2437 67.9172L77.1464 65.1211L111.049 107.065V146.212L43.2437 107.065V67.9172Z" fill="#2563EB"/>
<path d="M111.048 146.213L212.756 87.4916V48.3438L111.048 107.065" fill="#1D4ED8"/>
<path d="M77.146 65.1216L178.855 6.40039L217.6 54.3329L115.892 113.054L77.146 65.1216Z" fill="#E4E4E7"/>
<path d="M77.1451 65.1212L38.3994 68.3345L140.108 9.6129L178.854 6.3999L77.1451 65.1212Z" fill="#E4E4E7"/>
<path d="M48.0874 109.861V81.8984L96.5197 109.861V137.824L48.0874 109.861Z" fill="#E4E4E7"/>
<path d="M101.363 140.62V129.436L106.206 132.232L106.237 143.411L101.363 140.62Z" fill="#1E3A8A"/>
<path d="M96.5168 132.428V132.006L48.1758 104.096L48.0845 104.043V104.466L96.4254 132.376L96.5168 132.428Z" fill="#E4E4E7"/>
<path d="M48.0845 98.4561V98.8778L96.4254 126.788L96.5168 126.84V126.419L48.1758 98.5086L48.0845 98.4561Z" fill="#E4E4E7"/>
<path d="M96.5168 115.664V115.242L48.1758 87.3321L48.0845 87.2793V87.7014L96.4254 115.611L96.5168 115.664Z" fill="#E4E4E7"/>
<path d="M48.0845 92.8677V93.2894L96.4254 121.199L96.5168 121.252V120.83L48.1758 92.9202L48.0845 92.8677Z" fill="#E4E4E7"/>
<path d="M159.479 118.249V90.2866L115.885 115.455V143.418L159.479 118.249Z" fill="#E4E4E7"/>
<path d="M159.48 107.265V106.843L115.886 132.012V132.434L159.48 107.265Z" fill="#2563EB"/>
<path d="M115.886 126.424V126.846L159.48 101.677V101.255L115.886 126.424Z" fill="#2563EB"/>
<path d="M115.886 120.838V121.259L159.48 96.0904V95.668L115.886 120.838Z" fill="#2563EB"/>
<path d="M159.48 112.853V112.431L115.886 137.6V138.022L159.48 112.853Z" fill="#2563EB"/>
<path d="M207.913 90.2775V62.3149L164.319 87.4838V115.446L207.913 90.2775Z" fill="#E4E4E7"/>
<path d="M164.319 98.4521V98.8742L207.913 73.7053V73.2832L164.319 98.4521Z" fill="#2563EB"/>
<path d="M207.913 84.8821V84.46L164.319 109.629V110.051L207.913 84.8821Z" fill="#2563EB"/>
<path d="M207.913 79.2932V78.8711L164.319 104.04V104.462L207.913 79.2932Z" fill="#2563EB"/>
<path d="M164.319 92.8651V93.2872L207.913 68.1187V67.6963L164.319 92.8651Z" fill="#2563EB"/>
<path d="M106.393 48.1912L106.313 48.0918L67.9502 51.2736L67.2271 51.6908L67.2376 51.8189L106.097 48.5958L144.739 96.3988L145.164 96.1538L106.393 48.1912Z" fill="#2563EB"/>
<path d="M116.079 42.5974L115.998 42.498L77.6353 45.6795L76.9126 46.0967L76.9231 46.2249L115.783 43.002L154.424 90.805L154.849 90.5597L116.079 42.5974Z" fill="#2563EB"/>
<path d="M101.549 50.9865L101.469 50.8867L63.1061 54.0686L62.3833 54.4858L62.3938 54.6139L101.253 51.3907L139.895 99.1937L140.319 98.9487L101.549 50.9865Z" fill="#2563EB"/>
<path d="M120.923 39.8025L120.843 39.7031L82.4801 42.8843L81.7563 43.3018L81.7672 43.4292L120.627 40.2068L159.268 88.0098L159.693 87.7644L120.923 39.8025Z" fill="#2563EB"/>
<path d="M91.8638 56.5802L91.7833 56.4805L53.4209 59.6616L52.6978 60.0792L52.7083 60.2069L91.5681 56.9848L130.209 104.787L130.634 104.542L91.8638 56.5802Z" fill="#2563EB"/>
<path d="M82.0962 62.0728L43.7337 65.2543L43.0103 65.6718L43.0208 65.7996L81.8806 62.5771L120.522 110.379L120.947 110.134L82.1763 62.1725L82.0962 62.0728Z" fill="#2563EB"/>
<path d="M87.0204 59.3771L86.9403 59.2773L48.5775 62.4585L47.854 62.8764L47.8652 63.0038L86.7243 59.7817L125.366 107.584L125.791 107.339L87.0204 59.3771Z" fill="#2563EB"/>
<path d="M96.706 53.7835L96.6255 53.6841L58.2627 56.8656L57.5396 57.2831L57.5504 57.4109L96.4099 54.1877L135.052 101.991L135.476 101.746L96.706 53.7835Z" fill="#2563EB"/>
<path d="M125.766 37.006L125.685 36.9062L87.3231 40.0878L86.5996 40.5053L86.6101 40.6327L125.47 37.4103L164.111 85.2133L164.536 84.9679L125.766 37.006Z" fill="#2563EB"/>
<path d="M111.237 45.3943L111.156 45.2949L72.7932 48.4764L72.0708 48.894L72.0813 49.0217L110.94 45.7989L149.582 93.6019L150.007 93.3569L111.237 45.3943Z" fill="#2563EB"/>
<path d="M164.513 14.6369L164.432 14.5371L126.069 17.7186L125.346 18.1358L125.357 18.2636L164.216 15.0415L202.858 62.8441L203.283 62.5988L164.513 14.6369Z" fill="#2563EB"/>
<path d="M159.668 17.4328L159.588 17.333L121.226 20.5145L120.502 20.9321L120.513 21.0595L159.373 17.8374L198.014 65.64L198.438 65.395L159.668 17.4328Z" fill="#2563EB"/>
<path d="M154.825 20.2283L154.745 20.1289L116.382 23.3104L115.659 23.7276L115.67 23.8554L154.529 20.6329L193.171 68.4356L193.595 68.1906L154.825 20.2283Z" fill="#2563EB"/>
<path d="M174.198 9.04346L174.118 8.94336L135.755 12.1256L135.032 12.5428L135.042 12.6705L173.902 9.44771L212.543 57.2507L212.968 57.0054L174.198 9.04346Z" fill="#2563EB"/>
<path d="M169.356 11.84L169.275 11.7402L130.912 14.9221L130.19 15.3393L130.2 15.467L169.06 12.2442L207.701 60.0472L208.126 59.8019L169.356 11.84Z" fill="#2563EB"/>
<path d="M149.982 23.025L149.901 22.9253L111.539 26.1068L110.816 26.5243L110.826 26.6517L149.686 23.4293L188.328 71.2319L188.753 70.9869L149.982 23.025Z" fill="#2563EB"/>
<path d="M130.608 34.2088L130.528 34.1094L92.1653 37.2909L91.4419 37.7084L91.4527 37.8355L130.312 34.6134L168.954 82.4164L169.379 82.171L130.608 34.2088Z" fill="#2563EB"/>
<path d="M140.295 28.6175L140.215 28.5181L101.852 31.6992L101.129 32.1168L101.139 32.2442L139.999 29.0221L178.641 76.8247L179.065 76.5797L140.295 28.6175Z" fill="#2563EB"/>
<path d="M135.453 31.4139L135.372 31.3145L97.0101 34.4956L96.2866 34.9135L96.2971 35.0406L135.156 31.8185L173.798 79.6214L174.223 79.3761L135.453 31.4139Z" fill="#2563EB"/>
<path d="M145.14 25.8201L145.059 25.7207L106.696 28.9019L105.973 29.3194L105.984 29.4468L144.843 26.2244L183.485 74.027L183.91 73.782L145.14 25.8201Z" fill="#2563EB"/>
<path d="M182.469 29.3691L175.09 33.5121L182.116 42.2033L189.386 37.927L182.469 29.3691Z" fill="#2563EB"/>
<path d="M171.511 35.6948L164.132 39.8374L171.158 48.529L178.428 44.2523L171.511 35.6948Z" fill="#2563EB"/>
<path d="M32.1766 236.848C28.4006 236.848 24.7846 236.256 21.3286 235.072C17.8726 233.856 14.8486 232.128 12.2566 229.888C9.66462 227.616 7.79262 224.912 6.64061 221.776L20.1766 216.784C20.4966 217.712 21.2006 218.608 22.2886 219.472C23.4086 220.336 24.8166 221.056 26.5126 221.632C28.2086 222.176 30.0966 222.448 32.1766 222.448C34.0966 222.448 35.9046 222.176 37.6006 221.632C39.2966 221.056 40.6726 220.272 41.7286 219.28C42.7846 218.288 43.3126 217.136 43.3126 215.824C43.3126 214.48 42.7526 213.376 41.6326 212.512C40.5446 211.616 39.1366 210.912 37.4086 210.4C35.7126 209.856 33.9686 209.456 32.1766 209.2C27.3126 208.496 22.9446 207.344 19.0726 205.744C15.2326 204.112 12.1926 201.872 9.95262 199.024C7.74462 196.176 6.64061 192.56 6.64061 188.176C6.64061 183.984 7.82462 180.32 10.1926 177.184C12.5606 174.016 15.6806 171.552 19.5526 169.792C23.4566 168.032 27.6646 167.152 32.1766 167.152C35.9526 167.152 39.5686 167.76 43.0246 168.976C46.5126 170.16 49.5526 171.888 52.1446 174.16C54.7366 176.432 56.5926 179.152 57.7126 182.32L44.1766 187.216C43.8566 186.288 43.1366 185.408 42.0166 184.576C40.9286 183.712 39.5366 183.008 37.8406 182.464C36.1446 181.92 34.2566 181.648 32.1766 181.648C30.3206 181.616 28.5446 181.888 26.8486 182.464C25.1526 183.04 23.7606 183.824 22.6726 184.816C21.5846 185.808 21.0406 186.928 21.0406 188.176C21.0406 189.904 21.5526 191.2 22.5766 192.064C23.6006 192.896 24.9446 193.488 26.6086 193.84C28.3046 194.192 30.1606 194.512 32.1766 194.8C36.7846 195.472 41.0246 196.672 44.8966 198.4C48.7686 200.128 51.8726 202.432 54.2086 205.312C56.5446 208.192 57.7126 211.696 57.7126 215.824C57.7126 220.016 56.5286 223.696 54.1606 226.864C51.8246 230 48.7206 232.448 44.8486 234.208C40.9766 235.968 36.7526 236.848 32.1766 236.848ZM63.4569 235.6V168.4H103.393V182.8H77.8569V192.4H98.7849V206.8H77.8569V235.6H63.4569ZM136.448 236.848C131.904 236.848 127.632 235.952 123.632 234.16C119.632 232.336 116.112 229.824 113.072 226.624C110.064 223.424 107.696 219.728 105.968 215.536C104.272 211.312 103.424 206.8 103.424 202C103.424 197.168 104.272 192.656 105.968 188.464C107.696 184.24 110.064 180.544 113.072 177.376C116.112 174.176 119.632 171.68 123.632 169.888C127.632 168.064 131.904 167.152 136.448 167.152C141.888 167.152 146.896 168.416 151.472 170.944C156.048 173.44 159.84 176.784 162.848 180.976L149.984 187.888C148.32 185.968 146.32 184.432 143.984 183.28C141.648 182.128 139.136 181.552 136.448 181.552C133.888 181.552 131.472 182.08 129.2 183.136C126.96 184.192 124.976 185.664 123.248 187.552C121.552 189.408 120.224 191.568 119.264 194.032C118.304 196.496 117.824 199.152 117.824 202C117.824 204.816 118.304 207.456 119.264 209.92C120.224 212.384 121.552 214.56 123.248 216.448C124.976 218.304 126.96 219.776 129.2 220.864C131.472 221.92 133.888 222.448 136.448 222.448C139.136 222.448 141.648 221.872 143.984 220.72C146.32 219.536 148.32 217.968 149.984 216.016L162.848 223.024C159.84 227.184 156.048 230.528 151.472 233.056C146.896 235.584 141.888 236.848 136.448 236.848ZM167.576 235.6L180.632 168.4H192.92L207.992 208.048L223.064 168.4H235.352L248.408 235.6H233.72L226.712 199.312L212.984 235.6H203L189.272 199.312L182.264 235.6H167.576Z" fill="#2563EB"/>
</svg>
