<svg width="62" height="48" viewBox="0 0 62 48" fill="none" xmlns="http://www.w3.org/2000/svg">
<g clip-path="url(#clip0_98_219)">
<path d="M1.90161 21.1198L13.541 20.1599L25.1804 34.5598V47.9998L1.90161 34.5598V21.1198Z" fill="#2563EB"/>
<path d="M25.1803 47.9999L60.0986 27.84V14.3999L25.1803 34.5599" fill="#1D4ED8"/>
<path d="M13.541 20.16L48.4593 0L61.7614 16.4561L26.8433 36.6159L13.541 20.16Z" fill="#E4E4E7"/>
<path d="M13.5408 20.16L0.23877 21.2632L35.157 1.10308L48.4591 0L13.5408 20.16Z" fill="#E4E4E7"/>
<path d="M3.5647 35.5198V25.9198L20.1923 35.5198V45.1198L3.5647 35.5198Z" fill="#E4E4E7"/>
<path d="M21.855 46.0801V42.2401L23.5178 43.2001L23.5283 47.0383L21.855 46.0801Z" fill="#1E3A8A"/>
<path d="M20.191 43.2677V43.1228L3.59472 33.5409L3.56335 33.5228V33.6677L20.1596 43.2497L20.191 43.2677Z" fill="#E4E4E7"/>
<path d="M3.56335 31.6044V31.7492L20.1596 41.331L20.191 41.3492V41.2044L3.59472 31.6224L3.56335 31.6044Z" fill="#E4E4E7"/>
<path d="M20.1912 37.5121V37.3672L3.59496 27.7853L3.5636 27.7672V27.9121L20.1599 37.4939L20.1912 37.5121Z" fill="#E4E4E7"/>
<path d="M3.56335 29.686V29.8308L20.1596 39.4126L20.191 39.4307V39.2859L3.59472 29.704L3.56335 29.686Z" fill="#E4E4E7"/>
<path d="M41.8071 38.3998V28.7998L26.8406 37.4407V47.0407L41.8071 38.3998Z" fill="#E4E4E7"/>
<path d="M41.8076 34.6284V34.4835L26.8411 43.1243V43.2693L41.8076 34.6284Z" fill="#2563EB"/>
<path d="M26.8411 41.206V41.3509L41.8076 32.71V32.5651L26.8411 41.206Z" fill="#2563EB"/>
<path d="M26.8411 39.2882V39.433L41.8076 30.7921V30.647L26.8411 39.2882Z" fill="#2563EB"/>
<path d="M41.8076 36.5469V36.402L26.8411 45.0429V45.1878L41.8076 36.5469Z" fill="#2563EB"/>
<path d="M58.4358 28.7967V19.1967L43.4692 27.8376V37.4376L58.4358 28.7967Z" fill="#E4E4E7"/>
<path d="M43.469 31.6029V31.7478L58.4355 23.107V22.962L43.469 31.6029Z" fill="#2563EB"/>
<path d="M58.4355 26.9441V26.7992L43.469 35.4402V35.5851L58.4355 26.9441Z" fill="#2563EB"/>
<path d="M58.4355 25.0253V24.8804L43.469 33.5213V33.6664L58.4355 25.0253Z" fill="#2563EB"/>
<path d="M43.469 29.6849V29.8298L58.4355 21.189V21.044L43.469 29.6849Z" fill="#2563EB"/>
<path d="M23.5822 14.3475L23.5546 14.3134L10.384 15.4057L10.1357 15.549L10.1393 15.5929L23.4806 14.4864L36.7468 30.898L36.8927 30.8139L23.5822 14.3475Z" fill="#2563EB"/>
<path d="M26.9073 12.4271L26.8798 12.393L13.7091 13.4853L13.4609 13.6285L13.4645 13.6725L26.8058 12.566L40.0719 28.9776L40.2178 28.8934L26.9073 12.4271Z" fill="#2563EB"/>
<path d="M21.9193 15.3072L21.8916 15.2729L8.72103 16.3653L8.4729 16.5086L8.47651 16.5525L21.8176 15.446L35.0839 31.8576L35.2296 31.7735L21.9193 15.3072Z" fill="#2563EB"/>
<path d="M28.5704 11.4676L28.5429 11.4335L15.3724 12.5256L15.1239 12.669L15.1276 12.7127L28.4687 11.6064L41.7351 28.018L41.8809 27.9337L28.5704 11.4676Z" fill="#2563EB"/>
<path d="M18.594 17.2276L18.5663 17.1934L5.39584 18.2855L5.14758 18.4289L5.15119 18.4727L18.4924 17.3665L31.7587 33.7779L31.9044 33.6937L18.594 17.2276Z" fill="#2563EB"/>
<path d="M15.2406 19.1132L2.07015 20.2054L1.82178 20.3488L1.82538 20.3926L15.1666 19.2863L28.4329 35.6977L28.5786 35.6136L15.2682 19.1474L15.2406 19.1132Z" fill="#2563EB"/>
<path d="M16.9311 18.1879L16.9036 18.1536L3.73299 19.2458L3.48462 19.3892L3.48846 19.433L16.8295 18.3268L30.0958 34.7381L30.2416 34.654L16.9311 18.1879Z" fill="#2563EB"/>
<path d="M20.2563 16.2673L20.2287 16.2332L7.05807 17.3254L6.80981 17.4688L6.81354 17.5126L20.1547 16.4061L33.421 32.8177L33.5668 32.7335L20.2563 16.2673Z" fill="#2563EB"/>
<path d="M30.2332 10.5075L30.2056 10.4732L17.0352 11.5655L16.7869 11.7088L16.7905 11.7526L30.1317 10.6462L43.3978 27.0578L43.5436 26.9736L30.2332 10.5075Z" fill="#2563EB"/>
<path d="M25.245 13.3873L25.2173 13.3532L12.0466 14.4455L11.7986 14.5888L11.8022 14.6327L25.1432 13.5262L38.4096 29.9378L38.5553 29.8537L25.245 13.3873Z" fill="#2563EB"/>
<path d="M43.5355 2.8277L43.5079 2.79346L30.3372 3.88572L30.089 4.02895L30.0927 4.07281L43.4338 2.96661L56.7002 19.3781L56.846 19.2938L43.5355 2.8277Z" fill="#2563EB"/>
<path d="M41.8725 3.7876L41.8449 3.75336L28.6744 4.84562L28.4261 4.98897L28.4298 5.03271L41.771 3.92651L55.0371 20.338L55.1829 20.2539L41.8725 3.7876Z" fill="#2563EB"/>
<path d="M40.2097 4.74738L40.1822 4.71326L27.0116 5.80552L26.7632 5.94875L26.7669 5.99261L40.108 4.88629L53.3744 21.2978L53.5202 21.2136L40.2097 4.74738Z" fill="#2563EB"/>
<path d="M46.8606 0.907413L46.833 0.873047L33.6624 1.96555L33.4142 2.10878L33.4178 2.15264L46.759 1.0462L60.0253 17.4578L60.1712 17.3736L46.8606 0.907413Z" fill="#2563EB"/>
<path d="M45.1983 1.86756L45.1707 1.83331L32 2.9257L31.752 3.06893L31.7556 3.11279L45.0966 2.00635L58.3629 18.4179L58.5087 18.3337L45.1983 1.86756Z" fill="#2563EB"/>
<path d="M38.547 5.70734L38.5193 5.6731L25.3488 6.76536L25.1006 6.90871L25.1042 6.95245L38.4454 5.84613L51.7117 22.2576L51.8576 22.1735L38.547 5.70734Z" fill="#2563EB"/>
<path d="M31.8956 9.54713L31.868 9.513L18.6975 10.6053L18.4491 10.7486L18.4528 10.7922L31.7939 9.68603L45.0603 26.0976L45.2061 26.0134L31.8956 9.54713Z" fill="#2563EB"/>
<path d="M35.2214 7.62733L35.1939 7.5932L22.0234 8.68534L21.775 8.8287L21.7786 8.87243L35.1199 7.76623L48.3862 24.1777L48.532 24.0936L35.2214 7.62733Z" fill="#2563EB"/>
<path d="M33.5588 8.58759L33.5312 8.55347L20.3608 9.64561L20.1124 9.78908L20.116 9.8327L33.457 8.7265L46.7234 25.1381L46.8692 25.0539L33.5588 8.58759Z" fill="#2563EB"/>
<path d="M36.8845 6.66712L36.8568 6.633L23.6862 7.72514L23.438 7.86849L23.4417 7.91223L36.7827 6.80591L50.0491 23.2174L50.195 23.1333L36.8845 6.66712Z" fill="#2563EB"/>
<path d="M49.7003 7.88556L47.167 9.3079L49.5791 12.2917L52.075 10.8236L49.7003 7.88556Z" fill="#2563EB"/>
<path d="M45.9383 10.0574L43.405 11.4797L45.817 14.4636L48.313 12.9954L45.9383 10.0574Z" fill="#2563EB"/>
</g>
<defs>
<clipPath id="clip0_98_219">
<rect width="61.5224" height="48" fill="white" transform="translate(0.23877)"/>
</clipPath>
</defs>
</svg>
