<svg width="512" height="512" viewBox="0 0 512 512" fill="none" xmlns="http://www.w3.org/2000/svg">
<path d="M86.4878 135.834L154.293 130.242L222.099 214.129V292.424L86.4878 214.129V135.834Z" fill="#2563EB"/>
<path d="M222.096 292.425L425.513 174.983V96.687L222.096 214.13" fill="#1D4ED8"/>
<path d="M154.292 130.243L357.71 12.8008L435.201 108.666L231.785 226.108L154.292 130.243Z" fill="#E4E4E7"/>
<path d="M154.291 130.242L76.7993 136.669L280.216 19.2258L357.708 12.7998L154.291 130.242Z" fill="#E4E4E7"/>
<path d="M96.1753 219.722V163.797L193.04 219.722V275.647L96.1753 219.722Z" fill="#E4E4E7"/>
<path d="M202.726 281.241V258.871L212.413 264.463L212.474 286.823L202.726 281.241Z" fill="#1E3A8A"/>
<path d="M193.034 264.856V264.012L96.3516 208.193L96.1689 208.087V208.931L192.851 264.751L193.034 264.856Z" fill="#E4E4E7"/>
<path d="M96.1689 196.912V197.755L192.851 253.575L193.034 253.68V252.837L96.3516 197.017L96.1689 196.912Z" fill="#E4E4E7"/>
<path d="M193.034 231.328V230.484L96.3516 174.664L96.1689 174.559V175.403L192.851 231.222L193.034 231.328Z" fill="#E4E4E7"/>
<path d="M96.1689 185.735V186.579L192.851 242.398L193.034 242.503V241.66L96.3516 185.84L96.1689 185.735Z" fill="#E4E4E7"/>
<path d="M318.958 236.499V180.574L231.77 230.911V286.837L318.958 236.499Z" fill="#E4E4E7"/>
<path d="M318.96 214.531V213.687L231.772 264.024V264.868L318.96 214.531Z" fill="#2563EB"/>
<path d="M231.772 252.848V253.693L318.96 203.355V202.511L231.772 252.848Z" fill="#2563EB"/>
<path d="M231.772 241.675V242.519L318.96 192.181V191.336L231.772 241.675Z" fill="#2563EB"/>
<path d="M318.96 225.707V224.862L231.772 275.2V276.044L318.96 225.707Z" fill="#2563EB"/>
<path d="M415.827 180.555V124.63L328.639 174.968V230.893L415.827 180.555Z" fill="#E4E4E7"/>
<path d="M328.638 196.905V197.749L415.826 147.411V146.567L328.638 196.905Z" fill="#2563EB"/>
<path d="M415.826 169.765V168.92L328.638 219.259V220.103L415.826 169.765Z" fill="#2563EB"/>
<path d="M415.826 158.587V157.743L328.638 208.08V208.925L415.826 158.587Z" fill="#2563EB"/>
<path d="M328.638 185.731V186.575L415.826 136.238V135.393L328.638 185.731Z" fill="#2563EB"/>
<path d="M212.787 96.3829L212.626 96.1841L135.9 102.548L134.454 103.382L134.475 103.638L212.195 97.1921L289.478 192.798L290.327 192.308L212.787 96.3829Z" fill="#2563EB"/>
<path d="M232.157 85.1954L231.997 84.9966L155.271 91.3596L153.825 92.194L153.846 92.4502L231.566 86.0046L308.848 181.611L309.698 181.12L232.157 85.1954Z" fill="#2563EB"/>
<path d="M203.099 101.973L202.938 101.774L126.212 108.138L124.767 108.972L124.788 109.228L202.507 102.782L279.789 198.388L280.638 197.898L203.099 101.973Z" fill="#2563EB"/>
<path d="M241.846 79.6055L241.685 79.4067L164.96 85.769L163.513 86.6041L163.534 86.8589L241.253 80.414L318.537 176.02L319.386 175.529L241.846 79.6055Z" fill="#2563EB"/>
<path d="M183.728 113.161L183.567 112.961L106.842 119.324L105.396 120.159L105.417 120.414L183.136 113.97L260.419 209.575L261.268 209.085L183.728 113.161Z" fill="#2563EB"/>
<path d="M164.192 124.146L87.4674 130.509L86.0205 131.344L86.0415 131.599L163.761 125.154L241.044 220.759L241.893 220.269L164.353 124.345L164.192 124.146Z" fill="#2563EB"/>
<path d="M174.041 118.755L173.881 118.555L97.1549 124.917L95.708 125.753L95.7304 126.008L173.449 119.564L250.732 215.168L251.581 214.678L174.041 118.755Z" fill="#2563EB"/>
<path d="M193.412 107.566L193.251 107.368L116.526 113.731L115.08 114.566L115.101 114.821L192.82 108.375L270.104 203.981L270.953 203.491L193.412 107.566Z" fill="#2563EB"/>
<path d="M251.531 74.012L251.37 73.8125L174.646 80.1755L173.199 81.0106L173.22 81.2654L250.94 74.8205L328.222 170.427L329.071 169.936L251.531 74.012Z" fill="#2563EB"/>
<path d="M222.474 90.7891L222.313 90.5903L145.586 96.9533L144.142 97.7884L144.163 98.0439L221.881 91.5983L299.164 187.204L300.013 186.714L222.474 90.7891Z" fill="#2563EB"/>
<path d="M329.025 29.2742L328.864 29.0747L252.139 35.4377L250.692 36.2721L250.714 36.5276L328.433 30.0834L405.716 125.689L406.566 125.198L329.025 29.2742Z" fill="#2563EB"/>
<path d="M319.337 34.866L319.176 34.6665L242.451 41.0295L241.005 41.8646L241.026 42.1194L318.745 35.6752L396.028 131.28L396.877 130.791L319.337 34.866Z" fill="#2563EB"/>
<path d="M309.65 40.4571L309.49 40.2583L232.764 46.6213L231.317 47.4557L231.339 47.7112L309.058 41.2663L386.341 136.872L387.191 136.382L309.65 40.4571Z" fill="#2563EB"/>
<path d="M348.396 18.0869L348.236 17.8867L271.51 24.2511L270.064 25.0855L270.085 25.341L347.805 18.8954L425.087 114.501L425.937 114.011L348.396 18.0869Z" fill="#2563EB"/>
<path d="M338.712 23.6805L338.551 23.481L261.825 29.8447L260.38 30.6791L260.401 30.9346L338.119 24.489L415.403 120.095L416.252 119.604L338.712 23.6805Z" fill="#2563EB"/>
<path d="M299.963 46.0496L299.802 45.8501L223.078 52.2131L221.631 53.0482L221.652 53.303L299.372 46.8581L376.655 142.463L377.505 141.973L299.963 46.0496Z" fill="#2563EB"/>
<path d="M261.217 68.418L261.056 68.2192L184.331 74.5822L182.884 75.4173L182.905 75.6714L260.624 69.2272L337.908 164.833L338.757 164.343L261.217 68.418Z" fill="#2563EB"/>
<path d="M280.59 57.2344L280.43 57.0356L203.705 63.3979L202.258 64.233L202.279 64.4878L279.999 58.0436L357.282 153.649L358.131 153.159L280.59 57.2344Z" fill="#2563EB"/>
<path d="M270.905 62.8282L270.744 62.6294L194.02 68.9917L192.573 69.8275L192.594 70.0816L270.312 63.6374L347.596 159.243L348.445 158.753L270.905 62.8282Z" fill="#2563EB"/>
<path d="M290.279 51.6407L290.118 51.4419L213.392 57.8042L211.946 58.6393L211.968 58.8941L289.686 52.4492L366.97 148.054L367.82 147.564L290.279 51.6407Z" fill="#2563EB"/>
<path d="M364.939 58.7383L350.181 67.0242L364.232 84.4066L378.772 75.854L364.939 58.7383Z" fill="#2563EB"/>
<path d="M343.022 71.3901L328.265 79.6753L342.316 97.0584L356.856 88.5051L343.022 71.3901Z" fill="#2563EB"/>
<path d="M64.3532 472.696C56.8012 472.696 49.5692 471.512 42.6572 469.144C35.7452 466.712 29.6972 463.256 24.5132 458.776C19.3292 454.232 15.5852 448.824 13.2812 442.552L40.3532 432.568C40.9932 434.424 42.4012 436.216 44.5772 437.944C46.8172 439.672 49.6332 441.112 53.0252 442.264C56.4172 443.352 60.1932 443.896 64.3532 443.896C68.1932 443.896 71.8092 443.352 75.2012 442.264C78.5932 441.112 81.3452 439.544 83.4572 437.56C85.5692 435.576 86.6252 433.272 86.6252 430.648C86.6252 427.96 85.5052 425.752 83.2652 424.024C81.0892 422.232 78.2732 420.824 74.8172 419.8C71.4252 418.712 67.9372 417.912 64.3532 417.4C54.6252 415.992 45.8892 413.688 38.1452 410.488C30.4652 407.224 24.3852 402.744 19.9052 397.048C15.4892 391.352 13.2812 384.12 13.2812 375.352C13.2812 366.968 15.6492 359.64 20.3852 353.368C25.1212 347.032 31.3612 342.104 39.1052 338.584C46.9132 335.064 55.3292 333.304 64.3532 333.304C71.9052 333.304 79.1372 334.52 86.0492 336.952C93.0252 339.32 99.1052 342.776 104.289 347.32C109.473 351.864 113.185 357.304 115.425 363.64L88.3532 373.432C87.7132 371.576 86.2732 369.816 84.0332 368.152C81.8572 366.424 79.0732 365.016 75.6812 363.928C72.2892 362.84 68.5132 362.296 64.3532 362.296C60.6412 362.232 57.0892 362.776 53.6972 363.928C50.3052 365.08 47.5212 366.648 45.3452 368.632C43.1692 370.616 42.0812 372.856 42.0812 375.352C42.0812 378.808 43.1052 381.4 45.1532 383.128C47.2012 384.792 49.8892 385.976 53.2172 386.68C56.6092 387.384 60.3212 388.024 64.3532 388.6C73.5692 389.944 82.0492 392.344 89.7932 395.8C97.5372 399.256 103.745 403.864 108.417 409.624C113.089 415.384 115.425 422.392 115.425 430.648C115.425 439.032 113.057 446.392 108.321 452.728C103.649 459 97.4412 463.896 89.6972 467.416C81.9532 470.936 73.5052 472.696 64.3532 472.696ZM126.914 470.2V335.8H206.786V364.6H155.714V383.8H197.57V412.6H155.714V470.2H126.914ZM272.897 472.696C263.809 472.696 255.265 470.904 247.265 467.32C239.265 463.672 232.225 458.648 226.145 452.248C220.129 445.848 215.393 438.456 211.937 430.072C208.545 421.624 206.849 412.6 206.849 403C206.849 393.336 208.545 384.312 211.937 375.928C215.393 367.48 220.129 360.088 226.145 353.752C232.225 347.352 239.265 342.36 247.265 338.776C255.265 335.128 263.809 333.304 272.897 333.304C283.777 333.304 293.793 335.832 302.945 340.888C312.097 345.88 319.681 352.568 325.697 360.952L299.969 374.776C296.641 370.936 292.641 367.864 287.969 365.56C283.297 363.256 278.273 362.104 272.897 362.104C267.777 362.104 262.945 363.16 258.401 365.272C253.921 367.384 249.953 370.328 246.497 374.104C243.105 377.816 240.449 382.136 238.529 387.064C236.609 391.992 235.649 397.304 235.649 403C235.649 408.632 236.609 413.912 238.529 418.84C240.449 423.768 243.105 428.12 246.497 431.896C249.953 435.608 253.921 438.552 258.401 440.728C262.945 442.84 267.777 443.896 272.897 443.896C278.273 443.896 283.297 442.744 287.969 440.44C292.641 438.072 296.641 434.936 299.969 431.032L325.697 445.048C319.681 453.368 312.097 460.056 302.945 465.112C293.793 470.168 283.777 472.696 272.897 472.696ZM335.151 470.2L361.263 335.8H385.839L415.983 415.096L446.127 335.8H470.703L496.815 470.2H467.439L453.423 397.624L425.967 470.2H405.999L378.543 397.624L364.527 470.2H335.151Z" fill="#2563EB"/>
</svg>
