<svg width="128" height="128" viewBox="0 0 128 128" fill="none" xmlns="http://www.w3.org/2000/svg">
<path d="M21.6221 33.9586L38.5734 32.5605L55.5248 53.5324V73.1061L21.6221 53.5324V33.9586Z" fill="#2563EB"/>
<path d="M55.5244 73.1063L106.379 43.7458V24.1719L55.5244 53.5325" fill="#1D4ED8"/>
<path d="M38.5732 32.5608L89.4275 3.2002L108.8 27.1664L57.9464 56.5269L38.5732 32.5608Z" fill="#E4E4E7"/>
<path d="M38.573 32.5608L19.2002 34.1675L70.0543 4.80669L89.4273 3.2002L38.573 32.5608Z" fill="#E4E4E7"/>
<path d="M24.0439 54.9305V40.9492L48.2601 54.9305V68.9118L24.0439 54.9305Z" fill="#E4E4E7"/>
<path d="M50.6816 70.3102V64.7178L53.1033 66.1159L53.1187 71.7057L50.6816 70.3102Z" fill="#1E3A8A"/>
<path d="M48.2586 66.2143V66.0032L24.0882 52.0484L24.0425 52.022V52.233L48.213 66.188L48.2586 66.2143Z" fill="#E4E4E7"/>
<path d="M24.0425 49.228V49.4389L48.213 63.3938L48.2586 63.4202V63.2093L24.0882 49.2543L24.0425 49.228Z" fill="#E4E4E7"/>
<path d="M48.2586 57.832V57.6209L24.0882 43.6661L24.0425 43.6396V43.8507L48.213 57.8055L48.2586 57.832Z" fill="#E4E4E7"/>
<path d="M24.0425 46.4341V46.645L48.213 60.5998L48.2586 60.6261V60.4152L24.0882 46.4603L24.0425 46.4341Z" fill="#E4E4E7"/>
<path d="M79.7398 59.1248V45.1436L57.9429 57.728V71.7093L79.7398 59.1248Z" fill="#E4E4E7"/>
<path d="M79.7403 53.6324V53.4214L57.9434 66.0056V66.2169L79.7403 53.6324Z" fill="#2563EB"/>
<path d="M57.9434 63.2119V63.4229L79.7403 50.8385V50.6274L57.9434 63.2119Z" fill="#2563EB"/>
<path d="M57.9434 60.4188V60.6296L79.7403 48.0452V47.834L57.9434 60.4188Z" fill="#2563EB"/>
<path d="M79.7403 56.4264V56.2153L57.9434 68.7998V69.0108L79.7403 56.4264Z" fill="#2563EB"/>
<path d="M103.957 45.139V31.1577L82.1602 43.7421V57.7234L103.957 45.139Z" fill="#E4E4E7"/>
<path d="M82.1597 49.226V49.4371L103.957 36.8527V36.6416L82.1597 49.226Z" fill="#2563EB"/>
<path d="M103.957 42.441V42.23L82.1597 54.8146V55.0256L103.957 42.441Z" fill="#2563EB"/>
<path d="M103.957 39.6466V39.4355L82.1597 52.02V52.2312L103.957 39.6466Z" fill="#2563EB"/>
<path d="M82.1597 46.4326V46.6436L103.957 34.0594V33.8481L82.1597 46.4326Z" fill="#2563EB"/>
<path d="M53.197 24.0956L53.1567 24.0459L33.9753 25.6368L33.6138 25.8454L33.619 25.9095L53.0489 24.2979L72.3696 48.1994L72.5821 48.0769L53.197 24.0956Z" fill="#2563EB"/>
<path d="M58.0396 21.2987L57.9995 21.249L38.8179 22.8398L38.4565 23.0484L38.4618 23.1124L57.8917 21.501L77.2122 45.4025L77.4247 45.2798L58.0396 21.2987Z" fill="#2563EB"/>
<path d="M50.7749 25.4932L50.7347 25.4434L31.5533 27.0343L31.1919 27.2429L31.1971 27.3069L50.6269 25.6954L69.9476 49.5969L70.1598 49.4744L50.7749 25.4932Z" fill="#2563EB"/>
<path d="M60.4616 19.9013L60.4215 19.8516L41.2403 21.4421L40.8784 21.6509L40.8838 21.7146L60.3136 20.1034L79.6344 44.0049L79.8467 43.8822L60.4616 19.9013Z" fill="#2563EB"/>
<path d="M45.9321 28.2901L45.8919 28.2402L26.7107 29.8308L26.3491 30.0396L26.3544 30.1035L45.7843 28.4924L65.105 52.3936L65.3172 52.2711L45.9321 28.2901Z" fill="#2563EB"/>
<path d="M41.0483 31.0361L21.8671 32.6269L21.5054 32.8357L21.5106 32.8995L40.9405 31.2883L60.2612 55.1895L60.4735 55.067L41.0884 31.086L41.0483 31.0361Z" fill="#2563EB"/>
<path d="M43.5104 29.6885L43.4704 29.6387L24.289 31.2292L23.9272 31.4382L23.9328 31.5019L43.3624 29.8908L62.6833 53.792L62.8955 53.6695L43.5104 29.6885Z" fill="#2563EB"/>
<path d="M48.3532 26.8915L48.313 26.8418L29.1316 28.4325L28.77 28.6413L28.7754 28.7052L48.2052 27.0936L67.526 50.9951L67.7383 50.8726L48.3532 26.8915Z" fill="#2563EB"/>
<path d="M62.8833 18.503L62.8431 18.4531L43.662 20.0439L43.3003 20.2527L43.3055 20.3164L62.7354 18.7051L82.056 42.6066L82.2682 42.4839L62.8833 18.503Z" fill="#2563EB"/>
<path d="M55.6187 22.6972L55.5784 22.6475L36.3968 24.2382L36.0356 24.447L36.0409 24.5109L55.4704 22.8995L74.7913 46.801L75.0036 46.6785L55.6187 22.6972Z" fill="#2563EB"/>
<path d="M82.2565 7.31843L82.2163 7.26855L63.0349 8.85931L62.6733 9.0679L62.6788 9.13178L82.1085 7.52073L101.429 31.4221L101.642 31.2994L82.2565 7.31843Z" fill="#2563EB"/>
<path d="M79.8345 8.71638L79.7942 8.6665L60.613 10.2573L60.2515 10.466L60.2567 10.5297L79.6866 8.91868L99.0071 32.82L99.2194 32.6975L79.8345 8.71638Z" fill="#2563EB"/>
<path d="M77.4128 10.1142L77.3727 10.0645L58.1913 11.6552L57.8296 11.8638L57.835 11.9277L77.2647 10.3165L96.5856 34.2178L96.7979 34.0953L77.4128 10.1142Z" fill="#2563EB"/>
<path d="M87.0991 4.52173L87.0591 4.47168L67.8777 6.06278L67.5161 6.27138L67.5214 6.33525L86.9513 4.72385L106.272 28.6254L106.484 28.5027L87.0991 4.52173Z" fill="#2563EB"/>
<path d="M84.6782 5.91999L84.638 5.87012L65.4564 7.46104L65.0952 7.66964L65.1005 7.73352L84.53 6.12212L103.851 30.0236L104.063 29.9009L84.6782 5.91999Z" fill="#2563EB"/>
<path d="M74.9912 11.5123L74.951 11.4624L55.7698 13.0532L55.4082 13.2619L55.4135 13.3256L74.8434 11.7144L94.1641 35.6157L94.3765 35.4932L74.9912 11.5123Z" fill="#2563EB"/>
<path d="M65.3044 17.1044L65.2641 17.0547L46.0829 18.6454L45.7212 18.8542L45.7266 18.9177L65.1563 17.3067L84.4772 41.2082L84.6895 41.0855L65.3044 17.1044Z" fill="#2563EB"/>
<path d="M70.148 14.3085L70.1079 14.2588L50.9267 15.8494L50.5649 16.0581L50.5702 16.1218L70.0001 14.5108L89.321 38.4121L89.5332 38.2896L70.148 14.3085Z" fill="#2563EB"/>
<path d="M67.7266 15.7069L67.6863 15.6572L48.5053 17.2478L48.1436 17.4568L48.1488 17.5203L67.5784 15.9092L86.8992 39.8107L87.1115 39.6881L67.7266 15.7069Z" fill="#2563EB"/>
<path d="M72.57 12.9101L72.5298 12.8604L53.3484 14.4509L52.9868 14.6597L52.9922 14.7234L72.4218 13.1122L91.7427 37.0135L91.9551 36.891L72.57 12.9101Z" fill="#2563EB"/>
<path d="M91.2349 14.6846L87.5454 16.756L91.0584 21.1016L94.6933 18.9635L91.2349 14.6846Z" fill="#2563EB"/>
<path d="M85.7558 17.8477L82.0664 19.919L85.5792 24.2647L89.2143 22.1264L85.7558 17.8477Z" fill="#2563EB"/>
<path d="M16.0883 118.424C14.2003 118.424 12.3923 118.128 10.6643 117.536C8.93631 116.928 7.42431 116.064 6.12831 114.944C4.83231 113.808 3.89631 112.456 3.32031 110.888L10.0883 108.392C10.2483 108.856 10.6003 109.304 11.1443 109.736C11.7043 110.168 12.4083 110.528 13.2563 110.816C14.1043 111.088 15.0483 111.224 16.0883 111.224C17.0483 111.224 17.9523 111.088 18.8003 110.816C19.6483 110.528 20.3363 110.136 20.8643 109.64C21.3923 109.144 21.6563 108.568 21.6563 107.912C21.6563 107.24 21.3763 106.688 20.8163 106.256C20.2723 105.808 19.5683 105.456 18.7043 105.2C17.8563 104.928 16.9843 104.728 16.0883 104.6C13.6563 104.248 11.4723 103.672 9.53631 102.872C7.61631 102.056 6.09631 100.936 4.97631 99.5118C3.87231 98.0878 3.32031 96.2798 3.32031 94.0878C3.32031 91.9918 3.91231 90.1598 5.09631 88.5918C6.28031 87.0078 7.84031 85.7758 9.77631 84.8958C11.7283 84.0158 13.8323 83.5758 16.0883 83.5758C17.9763 83.5758 19.7843 83.8798 21.5123 84.4878C23.2563 85.0798 24.7763 85.9438 26.0723 87.0798C27.3683 88.2158 28.2963 89.5758 28.8563 91.1598L22.0883 93.6078C21.9283 93.1438 21.5683 92.7038 21.0083 92.2878C20.4643 91.8558 19.7683 91.5038 18.9203 91.2318C18.0723 90.9598 17.1283 90.8238 16.0883 90.8238C15.1603 90.8078 14.2723 90.9438 13.4243 91.2318C12.5763 91.5198 11.8803 91.9118 11.3363 92.4078C10.7923 92.9038 10.5203 93.4638 10.5203 94.0878C10.5203 94.9518 10.7763 95.5998 11.2883 96.0318C11.8003 96.4478 12.4723 96.7438 13.3043 96.9198C14.1523 97.0958 15.0803 97.2558 16.0883 97.3998C18.3923 97.7358 20.5123 98.3358 22.4483 99.1998C24.3843 100.064 25.9363 101.216 27.1043 102.656C28.2723 104.096 28.8563 105.848 28.8563 107.912C28.8563 110.008 28.2643 111.848 27.0803 113.432C25.9123 115 24.3603 116.224 22.4243 117.104C20.4883 117.984 18.3763 118.424 16.0883 118.424ZM31.7284 117.8V84.1998H51.6964V91.3998H38.9284V96.1998H49.3924V103.4H38.9284V117.8H31.7284ZM68.2242 118.424C65.9522 118.424 63.8162 117.976 61.8162 117.08C59.8162 116.168 58.0562 114.912 56.5362 113.312C55.0322 111.712 53.8482 109.864 52.9842 107.768C52.1362 105.656 51.7122 103.4 51.7122 101C51.7122 98.5838 52.1362 96.3278 52.9842 94.2318C53.8482 92.1198 55.0322 90.2718 56.5362 88.6878C58.0562 87.0878 59.8162 85.8398 61.8162 84.9438C63.8162 84.0318 65.9522 83.5758 68.2242 83.5758C70.9442 83.5758 73.4482 84.2078 75.7362 85.4718C78.0242 86.7198 79.9202 88.3918 81.4242 90.4878L74.9922 93.9438C74.1602 92.9838 73.1602 92.2158 71.9922 91.6398C70.8242 91.0638 69.5682 90.7758 68.2242 90.7758C66.9442 90.7758 65.7362 91.0398 64.6002 91.5678C63.4802 92.0958 62.4882 92.8318 61.6242 93.7758C60.7762 94.7038 60.1122 95.7838 59.6322 97.0158C59.1522 98.2478 58.9122 99.5758 58.9122 101C58.9122 102.408 59.1522 103.728 59.6322 104.96C60.1122 106.192 60.7762 107.28 61.6242 108.224C62.4882 109.152 63.4802 109.888 64.6002 110.432C65.7362 110.96 66.9442 111.224 68.2242 111.224C69.5682 111.224 70.8242 110.936 71.9922 110.36C73.1602 109.768 74.1602 108.984 74.9922 108.008L81.4242 111.512C79.9202 113.592 78.0242 115.264 75.7362 116.528C73.4482 117.792 70.9442 118.424 68.2242 118.424ZM83.7878 117.8L90.3158 84.1998H96.4598L103.996 104.024L111.532 84.1998H117.676L124.204 117.8H116.86L113.356 99.6558L106.492 117.8H101.5L94.6358 99.6558L91.1318 117.8H83.7878Z" fill="#2563EB"/>
</svg>
